<svg width="200" height="200" viewBox="0 0 200 200" fill="none" xmlns="http://www.w3.org/2000/svg">
<path d="M106.087 64.0869C106.087 60.7252 103.362 58 99.9999 58C96.6382 58 93.9129 60.7252 93.9129 64.0869V135.391C93.9129 138.753 96.6382 141.478 99.9999 141.478C103.362 141.478 106.087 138.753 106.087 135.391V64.0869Z" fill="#1E40AF"/>
<path d="M83.4783 76.2608C83.4783 73.8596 81.5317 71.913 79.1305 71.913C76.7292 71.913 74.7826 73.8596 74.7826 76.2608V123.217C74.7826 125.619 76.7292 127.565 79.1305 127.565C81.5317 127.565 83.4783 125.619 83.4783 123.217V76.2608Z" fill="#3B82F6"/>
<path d="M125.217 76.2608C125.217 73.8596 123.271 71.913 120.87 71.913C118.468 71.913 116.522 73.8596 116.522 76.2608V123.217C116.522 125.619 118.468 127.565 120.87 127.565C123.271 127.565 125.217 125.619 125.217 123.217V76.2608Z" fill="#3B82F6"/>
<path d="M66.0869 86.6956C66.0869 84.2944 64.1403 82.3478 61.7391 82.3478C59.3378 82.3478 57.3913 84.2944 57.3913 86.6956V112.783C57.3913 115.184 59.3378 117.13 61.7391 117.13C64.1403 117.13 66.0869 115.184 66.0869 112.783V86.6956Z" fill="#6366F1"/>
<path d="M142.609 86.6956C142.609 84.2944 140.662 82.3478 138.261 82.3478C135.859 82.3478 133.913 84.2944 133.913 86.6956V112.783C133.913 115.184 135.859 117.13 138.261 117.13C140.662 117.13 142.609 115.184 142.609 112.783V86.6956Z" fill="#6366F1"/>
<path d="M48.6956 93.6521C48.6956 91.2509 46.7491 89.3043 44.3478 89.3043C41.9466 89.3043 40 91.2509 40 93.6521V105.826C40 108.227 41.9466 110.174 44.3478 110.174C46.7491 110.174 48.6956 108.227 48.6956 105.826V93.6521Z" fill="#A855F7"/>
<path d="M160 93.6521C160 91.2509 158.053 89.3043 155.652 89.3043C153.251 89.3043 151.304 91.2509 151.304 93.6521V105.826C151.304 108.227 153.251 110.174 155.652 110.174C158.053 110.174 160 108.227 160 105.826V93.6521Z" fill="#A855F7"/>
</svg>
