<svg width="200" height="200" viewBox="0 0 200 200" fill="none" xmlns="http://www.w3.org/2000/svg">
<path d="M106.087 64.087C106.087 60.7252 103.362 58 100 58C96.6382 58 93.913 60.7252 93.913 64.087V135.391C93.913 138.753 96.6382 141.478 100 141.478C103.362 141.478 106.087 138.753 106.087 135.391V64.087Z" fill="url(#paint0_linear_42_108)"/>
<path d="M83.4784 76.261C83.4784 73.8598 81.5318 71.9132 79.1306 71.9132C76.7293 71.9132 74.7827 73.8598 74.7827 76.261V123.217C74.7827 125.619 76.7293 127.565 79.1306 127.565C81.5318 127.565 83.4784 125.619 83.4784 123.217V76.261Z" fill="#10B981"/>
<path d="M125.217 76.261C125.217 73.8598 123.271 71.9132 120.87 71.9132C118.468 71.9132 116.522 73.8598 116.522 76.261V123.217C116.522 125.619 118.468 127.565 120.87 127.565C123.271 127.565 125.217 125.619 125.217 123.217V76.261Z" fill="#10B981"/>
<path d="M66.0869 86.6957C66.0869 84.2945 64.1403 82.3479 61.7391 82.3479C59.3378 82.3479 57.3913 84.2945 57.3913 86.6957V112.783C57.3913 115.184 59.3378 117.13 61.7391 117.13C64.1403 117.13 66.0869 115.184 66.0869 112.783V86.6957Z" fill="#84CC16"/>
<path d="M142.609 86.6957C142.609 84.2945 140.662 82.3479 138.261 82.3479C135.86 82.3479 133.913 84.2945 133.913 86.6957V112.783C133.913 115.184 135.86 117.13 138.261 117.13C140.662 117.13 142.609 115.184 142.609 112.783V86.6957Z" fill="#84CC16"/>
<path d="M48.6956 93.6521C48.6956 91.2509 46.7491 89.3043 44.3478 89.3043C41.9466 89.3043 40 91.2509 40 93.6521V105.826C40 108.227 41.9466 110.174 44.3478 110.174C46.7491 110.174 48.6956 108.227 48.6956 105.826V93.6521Z" fill="#22D3EE"/>
<path d="M160 93.6521C160 91.2509 158.053 89.3043 155.652 89.3043C153.251 89.3043 151.304 91.2509 151.304 93.6521V105.826C151.304 108.227 153.251 110.174 155.652 110.174C158.053 110.174 160 108.227 160 105.826V93.6521Z" fill="#22D3EE"/>
<defs>
<linearGradient id="paint0_linear_42_108" x1="93.913" y1="58" x2="1311.3" y2="58" gradientUnits="userSpaceOnUse">
<stop stop-color="#06B6D4"/>
<stop offset="0.5" stop-color="#10B981"/>
<stop offset="1" stop-color="#84CC16"/>
</linearGradient>
</defs>
</svg>
