<svg width="320" height="110" viewBox="0 0 320 110" fill="none" xmlns="http://www.w3.org/2000/svg">
<path d="M257.159 23.4854C260.621 23.4855 262.466 24.6096 262.466 26.5205C262.466 27.7195 261.901 28.4693 260.697 28.8066C260.133 28.9565 259.492 29.0312 258.664 29.0312C255.201 29.0313 253.696 30.756 253.696 34.7656V38.8877H264.444C264.505 38.8877 264.566 38.8898 264.626 38.8926C266.065 38.9447 266.99 39.6311 267.568 41.2861L278.161 71.3418H278.273L289.114 40.6123C289.716 38.8886 290.582 38.214 292.2 38.2139C294.082 38.2139 295.399 39.4499 295.399 41.2109C295.399 41.6981 295.286 42.2985 295.061 42.9355L280.607 80.5986C277.22 89.555 274.02 92.4404 267.546 92.4404C264.384 92.4404 262.615 91.2787 262.615 89.2178C262.615 87.7938 263.594 86.8194 265.25 86.8193C266.191 86.8193 266.455 86.8574 267.471 86.8574C269.955 86.8574 272.326 85.3575 273.869 80.6357L274.773 77.8994L261.755 44.2471H253.733V75.0898C253.733 77.1881 252.454 78.537 250.459 78.5371C248.464 78.5371 247.185 77.1882 247.185 75.0898V44.2471H243.947C242.254 44.2471 241.161 43.2728 241.161 41.5869C241.161 39.9755 242.253 38.8877 243.947 38.8877H247.185V34.541C247.185 27.0835 250.76 23.4854 257.159 23.4854ZM174.611 38.2129C185.414 38.2129 192.717 45.9332 192.717 58.375C192.717 70.7794 185.414 78.5371 174.611 78.5371C163.771 78.5369 156.469 70.7792 156.469 58.375C156.469 45.9334 163.771 38.2131 174.611 38.2129ZM222.076 38.2129C223.92 38.2129 225.313 39.4124 225.313 40.9863C225.313 41.6607 225.088 42.3354 224.674 42.8975L213.494 58.1133L224.522 73.7402C224.974 74.4146 225.2 75.0515 225.2 75.6885C225.2 77.2999 223.845 78.5371 222.076 78.5371C221.022 78.5371 220.156 78.1246 219.592 77.2627L209.881 63.0225H209.73L199.943 77.2627C199.341 78.1246 198.551 78.5371 197.497 78.5371C195.728 78.5371 194.411 77.3379 194.411 75.7266C194.411 75.0895 194.637 74.4521 195.051 73.8525L206.343 58.375L195.276 42.9727C194.825 42.3356 194.599 41.6983 194.599 40.9863C194.599 39.4126 195.991 38.2131 197.798 38.2129C198.927 38.2129 199.567 38.588 200.282 39.5996L209.956 53.5029H210.106L219.555 39.75C220.307 38.6633 221.022 38.2129 222.076 38.2129ZM234.034 38.2129C235.954 38.213 237.308 39.6374 237.309 41.6982V75.0518C237.309 77.1128 235.954 78.537 234.034 78.5371C232.115 78.5371 230.759 77.1129 230.759 75.0518V41.6982C230.759 39.6373 232.115 38.2129 234.034 38.2129ZM156.293 23.2607C158.288 23.2608 159.718 24.4972 159.718 26.1836C159.718 26.7083 159.567 27.3456 159.304 28.0576L141.049 75.3145C140.183 77.5628 139.054 78.3867 136.908 78.3867C134.763 78.3867 133.596 77.5249 132.73 75.2764L114.513 28.0576C114.212 27.3081 114.099 26.7083 114.099 26.1836C114.099 24.4224 115.453 23.2609 117.485 23.2607C119.104 23.2607 120.12 24.0103 120.723 25.6592L136.795 69.6553H137.021L153.094 25.6592C153.734 23.9353 154.637 23.2607 156.293 23.2607ZM174.611 43.9473C167.686 43.9475 163.132 49.1938 163.132 58.375C163.132 67.5563 167.686 72.8035 174.611 72.8037C181.537 72.8037 186.055 67.5565 186.055 58.375C186.055 49.1936 181.537 43.9473 174.611 43.9473ZM234.034 24.2354C236.292 24.2355 238.137 26.0338 238.137 28.2822C238.137 30.4932 236.292 32.3299 234.034 32.3301C231.813 32.3301 229.969 30.4933 229.969 28.2822C229.969 26.0337 231.813 24.2354 234.034 24.2354Z" fill="url(#paint0_linear_42_211)"/>
<path d="M56.0385 29.9053C56.0385 27.6299 54.1858 25.7854 51.9004 25.7854C49.6151 25.7854 47.7624 27.6299 47.7624 29.9053V78.1676C47.7624 80.4429 49.6151 82.2875 51.9004 82.2875C54.1858 82.2875 56.0385 80.4429 56.0385 78.1676V29.9053Z" fill="#1E40AF"/>
<path d="M40.6687 38.1452C40.6687 36.5199 39.3453 35.2024 37.7129 35.2024C36.0805 35.2024 34.7572 36.5199 34.7572 38.1452V69.9277C34.7572 71.5529 36.0805 72.8705 37.7129 72.8705C39.3453 72.8705 40.6687 71.5529 40.6687 69.9277V38.1452Z" fill="#3B82F6"/>
<path d="M69.0439 38.1452C69.0439 36.5199 67.7206 35.2024 66.0881 35.2024C64.4557 35.2024 63.1324 36.5199 63.1324 38.1452V69.9277C63.1324 71.5529 64.4557 72.8705 66.0881 72.8705C67.7206 72.8705 69.0439 71.5529 69.0439 69.9277V38.1452Z" fill="#3B82F6"/>
<path d="M28.8456 45.208C28.8456 43.5827 27.5222 42.2652 25.8898 42.2652C24.2574 42.2652 22.9341 43.5827 22.9341 45.208V62.8649C22.9341 64.4902 24.2574 65.8077 25.8898 65.8077C27.5222 65.8077 28.8456 64.4902 28.8456 62.8649V45.208Z" fill="#6366F1"/>
<path d="M80.8668 45.208C80.8668 43.5827 79.5434 42.2652 77.911 42.2652C76.2786 42.2652 74.9553 43.5827 74.9553 45.208V62.8649C74.9553 64.4902 76.2786 65.8077 77.911 65.8077C79.5434 65.8077 80.8668 64.4902 80.8668 62.8649V45.208Z" fill="#6366F1"/>
<path d="M17.0226 49.9165C17.0226 48.2912 15.6993 46.9737 14.0669 46.9737C12.4344 46.9737 11.1111 48.2912 11.1111 49.9165V58.1564C11.1111 59.7817 12.4344 61.0992 14.0669 61.0992C15.6993 61.0992 17.0226 59.7817 17.0226 58.1564V49.9165Z" fill="#A855F7"/>
<path d="M92.6899 49.9165C92.6899 48.2912 91.3666 46.9737 89.7342 46.9737C88.1017 46.9737 86.7784 48.2912 86.7784 49.9165V58.1564C86.7784 59.7817 88.1017 61.0992 89.7342 61.0992C91.3666 61.0992 92.6899 59.7817 92.6899 58.1564V49.9165Z" fill="#A855F7"/>
<defs>
<linearGradient id="paint0_linear_42_211" x1="50.2571" y1="100.422" x2="371.526" y2="100.422" gradientUnits="userSpaceOnUse">
<stop stop-color="#1E40AF"/>
<stop offset="1" stop-color="#3B82F6"/>
</linearGradient>
</defs>
</svg>
